<?xml version="1.0" encoding="UTF-8"?>
<svg id="Capa_2" xmlns="http://www.w3.org/2000/svg" viewBox="0 0 1909.09 255.56">
  <defs>
    <style>
      .cls-1 {
        stroke-dasharray: 0 0 0 0 .95 95.5;
      }

      .cls-1, .cls-2 {
        fill: none;
        stroke: #f8dda4;
        stroke-linecap: round;
        stroke-miterlimit: 10;
        stroke-width: 48px;
      }

      .cls-3 {
        fill: #f8dda4;
      }
    </style>
  </defs>
  <g id="Capa_1-2" data-name="Capa_1">
    <g>
      <path class="cls-3" d="M.13,157.98V1.35h56.12c12.88,0,23.23,1.61,31.05,4.83,7.82,3.22,13.53,8.01,17.13,14.38,3.6,6.36,5.4,14.3,5.4,23.8,0,7.51-1.65,14.15-4.94,19.9-3.3,5.75-7.78,10.23-13.46,13.46-5.67,3.22-12.11,4.83-19.32,4.83l.69-7.36c9.05,0,16.56,1.69,22.54,5.06,5.98,3.38,10.5,7.97,13.57,13.8s4.6,12.42,4.6,19.78c0,14.72-4.48,25.76-13.46,33.12-8.97,7.36-22.19,11.04-39.67,11.04H.13ZM33.71,18.6v120.52l-11.96-13.34h38.18c5.98,0,10.69-1.46,14.15-4.37,3.45-2.91,5.17-6.9,5.17-11.96,0-5.52-1.65-9.66-4.94-12.42-3.3-2.76-7.94-4.14-13.92-4.14H21.75v-28.98h35.19c6.13,0,10.73-1.23,13.8-3.68s4.6-6.29,4.6-11.5c0-4.75-1.57-8.47-4.71-11.15-3.14-2.68-7.71-4.03-13.69-4.03H22.67l11.04-14.95Z"/>
      <path class="cls-3" d="M186.43,160.74c-11.65,0-21.93-2.49-30.82-7.47-8.89-4.98-15.79-11.92-20.7-20.81s-7.36-19.09-7.36-30.59,2.45-21.93,7.36-30.82,11.81-15.83,20.7-20.81c8.89-4.98,19.17-7.48,30.82-7.48s22.16,2.49,31.05,7.48c8.89,4.98,15.83,11.92,20.81,20.81s7.48,19.17,7.48,30.82-2.49,21.7-7.48,30.59c-4.98,8.89-11.92,15.83-20.81,20.81s-19.24,7.47-31.05,7.47ZM186.66,128.08c7.36,0,13.38-2.42,18.06-7.25s7.02-11.15,7.02-18.98-2.34-14.41-7.02-19.32c-4.68-4.91-10.69-7.36-18.06-7.36s-13.38,2.42-18.05,7.24c-4.68,4.83-7.02,11.23-7.02,19.21s2.34,14.38,7.02,19.21c4.68,4.83,10.69,7.25,18.05,7.25Z"/>
      <path class="cls-3" d="M315.69,160.74c-11.65,0-21.93-2.49-30.82-7.47s-15.79-11.92-20.7-20.81-7.36-19.09-7.36-30.59,2.45-21.93,7.36-30.82c4.91-8.89,11.81-15.83,20.7-20.81,8.89-4.98,19.17-7.48,30.82-7.48s22.16,2.49,31.05,7.48c8.89,4.98,15.83,11.92,20.81,20.81s7.48,19.17,7.48,30.82-2.49,21.7-7.48,30.59c-4.98,8.89-11.92,15.83-20.81,20.81-8.89,4.98-19.24,7.47-31.05,7.47ZM315.92,128.08c7.36,0,13.38-2.42,18.06-7.25s7.02-11.15,7.02-18.98-2.34-14.41-7.02-19.32-10.69-7.36-18.06-7.36-13.38,2.42-18.05,7.24c-4.68,4.83-7.02,11.23-7.02,19.21s2.34,14.38,7.02,19.21,10.69,7.25,18.05,7.25Z"/>
      <path class="cls-3" d="M392.51,1.35h33.35v156.63h-33.35V1.35ZM415.74,101.4v-4.37l46-51.52h37.72l-51.06,57.73-.92-11.04,53.13,65.78h-39.1l-45.77-56.58Z"/>
      <path class="cls-3" d="M510.27,157.98V45.51h24.84l6.9,22.31-11.5-.92c3.83-4.45,8.2-8.51,13.11-12.19,4.91-3.68,10.27-6.59,16.1-8.74,5.83-2.15,11.88-3.22,18.17-3.22,7.51,0,13.53,1.27,18.05,3.79,4.52,2.53,7.97,6.02,10.35,10.46,2.38,4.45,3.99,9.47,4.83,15.07s1.27,11.38,1.27,17.36v68.54h-33.58v-66.69c0-6.44-1.15-10.69-3.45-12.76-2.3-2.07-5.14-3.1-8.51-3.1-4.75,0-9.43,1.42-14.03,4.25-4.6,2.84-8.74,6.48-12.42,10.92l-5.98-17.02h9.43v84.41h-33.58,0ZM647.35,157.98v-66.7c0-6.44-1.11-10.69-3.33-12.76-2.22-2.07-5.02-3.1-8.4-3.1-4.91,0-9.66,1.42-14.26,4.25-4.6,2.84-8.74,6.48-12.42,10.92l-9.89-23.69c3.99-4.45,8.43-8.51,13.34-12.19,4.91-3.68,10.23-6.59,15.98-8.74s11.77-3.22,18.06-3.22c7.51,0,13.57,1.27,18.17,3.79,4.6,2.53,8.05,6.02,10.35,10.46,2.3,4.45,3.91,9.47,4.83,15.07.92,5.6,1.38,11.38,1.38,17.36v68.54h-33.81,0Z"/>
      <path class="cls-3" d="M737.74,160.97c-8.13,0-15.29-1.57-21.5-4.72-6.21-3.14-11-7.55-14.38-13.23-3.37-5.67-5.06-12.27-5.06-19.78,0-7.97,1.84-14.76,5.52-20.35,3.68-5.6,8.62-9.93,14.83-13s13.15-4.6,20.81-4.6c11.19,0,20.24,2.53,27.14,7.59,6.9,5.06,11.5,12.34,13.8,21.85l-14.49-2.53v-26.22c0-4.14-1.46-7.74-4.37-10.81s-7.59-4.6-14.03-4.6c-4.14,0-8.89.5-14.26,1.5s-10.89,2.88-16.56,5.63l-9.89-23.92c6.75-3.37,13.99-6.06,21.74-8.05,7.74-1.99,15.68-2.99,23.8-2.99,10.43,0,19.17,1.84,26.22,5.52s12.3,8.89,15.76,15.64c3.45,6.75,5.17,14.57,5.17,23.46v70.61h-27.37l-6.67-21.85,14.95-4.6c-2.45,9.2-7.13,16.41-14.03,21.62s-15.95,7.82-27.14,7.82h.01ZM748.09,137.05c5.06,0,9.08-1.3,12.07-3.91,2.99-2.61,4.49-5.9,4.49-9.89,0-4.29-1.5-7.67-4.49-10.12-2.99-2.45-7.01-3.68-12.07-3.68s-9.05,1.23-11.96,3.68c-2.91,2.45-4.37,5.83-4.37,10.12,0,3.99,1.46,7.28,4.37,9.89,2.91,2.61,6.9,3.91,11.96,3.91Z"/>
      <path class="cls-3" d="M845.15,45.51l8.74,31.05v81.42h-33.58V45.51h24.84ZM846.53,95.19l-5.75-2.53v-25.99l2.07-2.76c1.84-2.61,4.49-5.6,7.93-8.97,3.45-3.37,7.51-6.25,12.19-8.62,4.68-2.38,9.47-3.56,14.38-3.56,2.45,0,4.68.15,6.67.46,1.99.31,3.6.84,4.83,1.61v30.59h-7.59c-9.81,0-17.52,1.57-23.12,4.71-5.6,3.14-9.47,8.17-11.62,15.06h.01Z"/>
      <path class="cls-3" d="M904.72,1.35h33.35v156.63h-33.35V1.35ZM927.95,101.4v-4.37l46-51.52h37.72l-51.06,57.73-.92-11.04,53.13,65.78h-39.1l-45.77-56.58Z"/>
      <path class="cls-3" d="M1063.65,161.43c-9.05,0-17.52-1.76-25.42-5.29s-15.06-9.58-21.5-18.17l19.09-18.4c5.21,5.37,10.2,9.2,14.95,11.5,4.75,2.3,9.97,3.45,15.64,3.45,3.37,0,6.1-.73,8.17-2.19,2.07-1.46,3.11-3.26,3.11-5.4,0-1.84-.61-3.37-1.84-4.6-1.23-1.23-3.53-2.45-6.9-3.68-3.37-1.23-8.28-2.68-14.72-4.37-11.81-2.91-20.58-7.17-26.33-12.76-5.75-5.6-8.62-13.07-8.62-22.43,0-6.75,1.76-12.92,5.29-18.51,3.53-5.6,8.58-10.08,15.18-13.46,6.59-3.37,14.41-5.06,23.46-5.06,10.73,0,19.86,2.03,27.37,6.09,7.51,4.06,13.72,9.01,18.63,14.83l-20.7,17.71c-3.37-3.07-7.44-5.67-12.19-7.82s-10.12-3.22-16.1-3.22c-3.22,0-5.98.61-8.28,1.84-2.3,1.23-3.45,3.07-3.45,5.52,0,2.3,1.38,4.22,4.14,5.75,2.76,1.53,8.28,3.3,16.56,5.29,13.95,3.37,23.96,7.9,30.01,13.57,6.06,5.67,9.08,13.26,9.08,22.77,0,7.36-1.92,13.84-5.75,19.44-3.83,5.6-9.12,9.93-15.87,13s-14.41,4.6-23,4.6h-.01Z"/>
    </g>
    <g>
      <line class="cls-2" x1="24" y1="231.56" x2="24.5" y2="231.56"/>
      <line class="cls-1" x1="24" y1="231.56" x2="1084.53" y2="231.56"/>
      <line class="cls-2" x1="1084.53" y1="231.56" x2="1085.03" y2="231.56"/>
    </g>
    <g>
      <path class="cls-3" d="M1216.34,157.99h-23.2V0h93.73v21.81h-75.86l5.34-7.42v143.61ZM1211.7,89.55v-21.81h61.48v21.81h-61.48Z"/>
      <path class="cls-3" d="M1350.43,160.31c-11.45,0-21.54-2.44-30.28-7.31-8.74-4.87-15.51-11.72-20.3-20.53-4.79-8.82-7.19-19.1-7.19-30.86s2.4-22.27,7.19-31.09c4.79-8.82,11.56-15.7,20.3-20.65,8.74-4.95,18.83-7.42,30.28-7.42s21.73,2.48,30.39,7.42c8.66,4.95,15.43,11.83,20.3,20.65s7.31,19.18,7.31,31.09-2.44,22.04-7.31,30.86-11.64,15.66-20.3,20.53c-8.66,4.87-18.79,7.31-30.39,7.31ZM1350.43,138.04c10.36,0,18.68-3.36,24.94-10.09s9.4-15.5,9.4-26.33-3.13-19.87-9.4-26.68c-6.26-6.8-14.58-10.21-24.94-10.21s-18.44,3.36-24.71,10.09c-6.26,6.73-9.4,15.58-9.4,26.56s3.13,19.84,9.4,26.56c6.26,6.73,14.5,10.09,24.71,10.09Z"/>
      <path class="cls-3" d="M1447.87,44.78l5.57,30.62v82.59h-23.2V44.78h17.63ZM1449.96,84.91l-5.57-2.55v-16.94l2.09-2.55c1.54-2.78,3.98-5.76,7.31-8.93,3.32-3.17,7.23-5.88,11.72-8.12,4.48-2.24,9.05-3.36,13.69-3.36,2.32,0,4.52.16,6.61.46,2.09.31,3.67.85,4.76,1.62v20.88h-7.19c-10.52,0-18.18,1.59-22.97,4.76-4.8,3.17-8.28,8.08-10.44,14.73Z"/>
      <path class="cls-3" d="M1544.85,160.31c-8.51,0-15.24-1.36-20.18-4.06-4.95-2.7-8.58-6.34-10.9-10.9-2.32-4.56-3.83-9.7-4.52-15.43-.7-5.72-1.04-11.6-1.04-17.63V44.78h23.2v72.38c0,8.04,1.82,13.46,5.45,16.24,3.63,2.78,7.92,4.18,12.88,4.18s10.17-1,15.2-3.02c5.02-2.01,9.59-4.76,13.69-8.24,4.1-3.48,7.15-7.23,9.16-11.25v12.99h-3.71V44.78h23.2v113.22h-17.63l-4.87-19.95,5.8-.7c-4.02,4.8-8.51,8.93-13.46,12.41-4.95,3.48-10.13,6.11-15.54,7.89-5.42,1.78-10.98,2.67-16.7,2.67Z"/>
      <path class="cls-3" d="M1636.95,157.99V44.78h17.63l4.87,19.95-5.8.7c4.18-4.95,8.58-9.12,13.22-12.53,4.64-3.4,9.59-5.99,14.85-7.77,5.26-1.78,10.75-2.67,16.47-2.67,8.04,0,14.38,1.36,19.02,4.06,4.64,2.71,8.04,6.34,10.21,10.9,2.16,4.56,3.56,9.71,4.18,15.43.62,5.72.93,11.6.93,17.63v67.51h-23.2v-72.38c0-8.04-1.82-13.46-5.45-16.24-3.64-2.78-7.93-4.18-12.88-4.18-7.12,0-13.92,2.2-20.42,6.61s-11.22,9.71-14.15,15.89v-12.99h3.71v83.29h-23.2ZM1781.72,157.99v-72.38c0-8.04-1.82-13.46-5.45-16.24-3.64-2.78-7.93-4.18-12.88-4.18-7.12,0-13.92,2.2-20.42,6.61s-11.22,9.71-14.15,15.89l-2.78-22.27c4.18-4.95,8.58-9.12,13.22-12.53,4.64-3.4,9.59-5.99,14.85-7.77,5.26-1.78,10.75-2.67,16.47-2.67,8.04,0,14.38,1.36,19.02,4.06,4.64,2.71,8.04,6.34,10.21,10.9,2.16,4.56,3.56,9.71,4.18,15.43.62,5.72.93,11.6.93,17.63v67.51h-23.2Z"/>
      <path class="cls-3" d="M1868.72,160.31c-7.89,0-15.66-1.86-23.32-5.57-7.66-3.71-13.96-10.05-18.91-19.02l17.63-11.6c4.33,5.72,8.43,9.86,12.3,12.41,3.86,2.55,8.89,3.83,15.08,3.83,4.95,0,8.78-1.28,11.48-3.83,2.71-2.55,4.06-5.68,4.06-9.4,0-2.47-.66-4.64-1.97-6.5-1.32-1.86-3.6-3.6-6.84-5.22-3.25-1.62-7.89-3.21-13.92-4.76-11.14-2.94-19.72-6.8-25.75-11.6-6.03-4.79-9.05-12.37-9.05-22.74,0-6.18,1.54-11.83,4.64-16.94,3.09-5.1,7.58-9.2,13.46-12.3,5.88-3.09,12.84-4.64,20.88-4.64,9.59,0,17.78,1.97,24.59,5.92,6.8,3.94,12.14,8.62,16.01,14.04l-17.86,13.22c-2.17-2.78-5.34-5.53-9.51-8.24-4.18-2.7-9.44-4.06-15.78-4.06-3.87,0-7.42,1.08-10.67,3.25-3.25,2.17-4.87,5.18-4.87,9.05s1.51,7,4.52,9.4c3.02,2.4,8.54,4.52,16.59,6.38,13.61,3.25,23.28,7.46,29,12.64,5.72,5.18,8.58,12.03,8.58,20.53,0,7.42-1.9,13.8-5.68,19.14-3.79,5.34-8.74,9.44-14.85,12.3-6.11,2.86-12.72,4.29-19.84,4.29Z"/>
    </g>
  </g>
</svg>